<svg width="106" height="613" viewBox="0 0 106 613" fill="none" xmlns="http://www.w3.org/2000/svg">
<path fill-rule="evenodd" clip-rule="evenodd" d="M284.914 -352.488C378.816 -412.839 500.328 -329.147 606.445 -294.44C695.841 -265.202 781.671 -231.371 850.687 -167.445C922.505 -100.923 976.461 -19.526 1004.51 74.2671C1036.23 180.339 1064.83 296.816 1019.74 397.899C973.65 501.226 876.3 587.001 765.538 609.99C662.06 631.466 576.585 528.577 472.273 511.525C367.351 494.373 251.989 566.47 161.155 511.189C65.3803 452.901 -6.1279 336.625 1.04142 224.736C8.06001 115.198 147.437 67.9165 195.868 -30.5613C246.231 -132.969 188.927 -290.797 284.914 -352.488Z" fill="#FFCB47"/>
</svg>
